<svg width="31" height="30" viewBox="0 0 31 30" fill="none" xmlns="http://www.w3.org/2000/svg">
<g clip-path="url(#clip0)">
<path d="M1.75412 18.1681C2.65762 19.2311 4.05958 19.4566 5.18116 19.521C6.24042 19.5855 7.7047 19.5532 9.54284 19.3922C9.10667 21.325 8.39011 24.3852 8.10971 25.8992C7.79817 27.5743 8.73281 29.0561 10.3217 29.5393C11.8483 29.9902 13.3437 29.3138 13.8734 27.9608L14.0603 27.5099C14.9015 25.2549 17.1758 19.2955 20.8832 18.2003C20.8832 18.2003 20.8832 18.2003 20.9144 18.2003C21.5375 18.909 22.4098 19.3278 23.4067 19.3278H27.083C28.9523 19.3278 30.4477 17.7815 30.4477 15.8488V4.21987C30.4477 2.28709 28.9523 0.740865 27.083 0.740865H23.3756C22.3786 0.740865 21.4751 1.19185 20.8521 1.90053C19.0139 1.51398 11.8483 0.0643921 7.33084 0.0643921C5.67964 0.0643921 2.2526 0.0643924 1.84759 3.92995C1.66066 5.5406 1.09987 10.9846 0.912944 14.0448C0.757169 16.042 1.00641 17.2983 1.75412 18.1681ZM23.3756 2.73807H27.083C27.893 2.73807 28.5473 3.41454 28.5473 4.25208V15.881C28.5473 16.7185 27.893 17.395 27.083 17.395H23.3756C22.5656 17.395 21.9113 16.7185 21.9113 15.881V4.25208C21.9113 3.41454 22.5656 2.73807 23.3756 2.73807ZM2.78224 14.2381C3.00032 11.1779 3.56111 5.76609 3.71688 4.18765C3.87265 2.73807 4.43344 2.09381 7.33084 2.09381C11.3187 2.09381 17.7366 3.3179 20.042 3.8011C20.0109 3.96216 20.0109 4.12323 20.0109 4.28429V15.881C20.0109 16.0742 20.042 16.2675 20.0732 16.4286C15.6492 17.9748 13.3126 24.1275 12.3156 26.8012L12.1598 27.2199C11.9418 27.7998 11.2564 27.7676 10.9137 27.6387C10.6644 27.5743 9.85439 27.2521 10.0413 26.2535C10.384 24.3208 11.4433 19.8432 11.7548 18.4902C11.8171 18.1681 11.7548 17.846 11.5367 17.6205C11.3498 17.395 11.0383 17.2661 10.7267 17.2983C8.9509 17.4916 7.48662 17.5883 6.36504 17.5883C5.99119 17.5883 5.64848 17.5883 5.36809 17.556C4.24651 17.4916 3.59226 17.2661 3.24956 16.8796C2.81339 16.4286 2.68877 15.5588 2.78224 14.2381Z" fill="#081C15"/>
</g>
<defs>
<clipPath id="clip0">
<rect width="29.9087" height="29.9581" fill="white" transform="translate(0.726074)"/>
</clipPath>
</defs>
</svg>
