<svg width="31" height="30" viewBox="0 0 31 30" fill="none" xmlns="http://www.w3.org/2000/svg">
<g clip-path="url(#clip0)">
<path d="M29.6668 11.5645C28.7633 10.5014 27.3613 10.2759 26.2397 10.2115C25.1805 10.1471 23.7162 10.1793 21.8781 10.3404C22.3142 8.40759 23.0308 5.34736 23.3112 3.83335C23.6227 2.15827 22.6881 0.676471 21.0992 0.193276C19.5726 -0.257706 18.0772 0.418767 17.5475 1.77171L17.3606 2.2227C16.5194 4.47761 14.2451 10.437 10.5377 11.5323C10.5377 11.5323 10.5377 11.5323 10.5065 11.5323C9.88344 10.8236 9.0111 10.4048 8.01415 10.4048H4.33787C2.46858 10.4048 0.973145 11.951 0.973145 13.8838V25.5127C0.973145 27.4455 2.46858 28.9917 4.33787 28.9917H8.0453C9.04226 28.9917 9.94575 28.5407 10.5688 27.832C12.407 28.2186 19.5726 29.6682 24.0901 29.6682C25.7413 29.6682 29.1683 29.6682 29.5733 25.8026C29.7602 24.192 30.321 18.748 30.508 15.6877C30.6637 13.6905 30.4145 12.4342 29.6668 11.5645ZM8.0453 26.9945H4.33787C3.52784 26.9945 2.87359 26.318 2.87359 25.4805V13.8516C2.87359 13.0141 3.52784 12.3376 4.33787 12.3376H8.0453C8.85533 12.3376 9.50958 13.0141 9.50958 13.8516V25.4805C9.50958 26.318 8.85533 26.9945 8.0453 26.9945ZM28.6387 15.4945C28.4206 18.5547 27.8598 23.9665 27.704 25.5449C27.5483 26.9945 26.9875 27.6388 24.0901 27.6388C20.1022 27.6388 13.6843 26.4147 11.3789 25.9315C11.41 25.7704 11.41 25.6093 11.41 25.4483V13.8516C11.41 13.6583 11.3789 13.465 11.3477 13.304C15.7717 11.7577 18.1083 5.60506 19.1053 2.93138L19.2611 2.51261C19.4791 1.93278 20.1645 1.96499 20.5072 2.09384C20.7565 2.15827 21.5665 2.4804 21.3796 3.479C21.0369 5.41178 19.9776 9.88939 19.6661 11.2423C19.6038 11.5645 19.6661 11.8866 19.8842 12.1121C20.0711 12.3376 20.3826 12.4664 20.6942 12.4342C22.47 12.2409 23.9343 12.1443 25.0559 12.1443C25.4297 12.1443 25.7724 12.1443 26.0528 12.1765C27.1744 12.2409 27.8286 12.4664 28.1713 12.853C28.6075 13.304 28.7321 14.1737 28.6387 15.4945Z" fill="#030c08"/>
</g>
<defs>
<clipPath id="clip0">
<rect width="29.9087" height="29.9581" fill="white" transform="translate(0.817383)"/>
</clipPath>
</defs>
</svg>
