<svg width="30" height="30" viewBox="0 0 30 30" fill="none" xmlns="http://www.w3.org/2000/svg">
<g clip-path="url(#clip0)">
<path d="M29.6305 25.5692V25.2697V24.0504L29.5856 19.3499C29.5527 16.3182 29.5079 13.5081 29.457 11.0186L29.3763 7.54045V7.38467C29.3787 7.34676 29.3787 7.30874 29.3763 7.27083C29.3483 7.08467 29.261 6.91258 29.1273 6.78028C28.9936 6.64798 28.8207 6.56258 28.6345 6.53686H28.5269H28.4671L27.7193 6.56082L26.3196 6.59078H26.3017C26.2777 5.56322 26.2568 4.60456 26.2299 3.7178V3.68784C26.2269 3.62458 26.2112 3.56257 26.1838 3.50548C26.1565 3.44838 26.1179 3.39738 26.0705 3.35547C26.0231 3.31357 25.9678 3.28162 25.9078 3.26153C25.8479 3.24143 25.7845 3.23359 25.7214 3.23847L23.2958 3.31337C23.2958 2.52547 23.2749 1.75554 23.2629 1.00659V0.976634C23.259 0.782991 23.1795 0.598603 23.0414 0.463056C22.9032 0.327509 22.7176 0.251608 22.5242 0.251648L20.9809 0.27861C20.4353 0.286295 19.8924 0.356658 19.3629 0.488317C18.39 0.734371 17.4866 1.2007 16.7219 1.85141C15.6095 2.78295 14.8668 4.08268 14.6283 5.51529C13.5426 4.46223 12.1913 3.7249 10.7193 3.38227C10.2278 3.26895 9.72744 3.19879 9.22382 3.17256C8.95165 3.17256 8.7064 3.15758 8.44919 3.15159H7.6596L4.19019 3.10066C4.10707 3.09908 4.02445 3.11396 3.94708 3.14445C3.86972 3.17495 3.79913 3.22045 3.73937 3.27836C3.67962 3.33626 3.63188 3.40542 3.59889 3.48186C3.5659 3.5583 3.54832 3.64052 3.54715 3.72379V3.74476C3.54715 4.67047 3.51725 5.63212 3.50528 6.62074L2.14444 6.57281H1.74665H1.54327H1.42364C1.22614 6.57147 1.03414 6.63793 0.879593 6.76112C0.725049 6.8843 0.617283 7.05679 0.574233 7.24986C0.565567 7.28936 0.559571 7.32939 0.556288 7.36969V7.56442V7.78012L0.457589 11.5009C0.403754 14.1971 0.358891 17.2529 0.323 20.5393L0.278137 25.6322V25.8389C0.292212 26.0893 0.387423 26.3284 0.549339 26.5197C0.711255 26.7111 0.931047 26.8444 1.1754 26.8994C1.25587 26.918 1.33807 26.928 1.42065 26.9293H2.01882H3.34677H6.03855H8.76921C9.55436 26.9174 10.3285 27.1149 11.0124 27.5015C11.3524 27.6936 11.6652 27.9304 11.9425 28.2056C12.0143 28.2775 12.0711 28.3404 12.1519 28.4242C12.2536 28.5303 12.3615 28.6304 12.4749 28.7238C12.6922 28.9237 12.9357 29.0931 13.1987 29.2271C13.7211 29.5056 14.3014 29.6574 14.8931 29.6705C15.4847 29.6835 16.0712 29.5573 16.6053 29.302H16.6292L16.6771 29.2751L16.7488 29.2391L16.9403 29.1313C17.0655 29.0625 17.1829 28.9801 17.2902 28.8856L17.5893 28.61C17.6811 28.5262 17.7679 28.4372 17.8495 28.3434C18.0948 28.0731 18.3755 27.8373 18.6839 27.6423C19.3128 27.2413 20.0333 27.0073 20.7775 26.9623C20.8703 26.9623 20.96 26.9623 21.0527 26.9623H22.0217H23.3078H25.853L28.3534 26.9473H28.5687C28.8433 26.926 29.1011 26.8071 29.2958 26.6121C29.4905 26.4171 29.6092 26.1588 29.6305 25.8838V25.5842V25.5692ZM22.5272 20.2936C22.6234 20.2952 22.719 20.2778 22.8085 20.2424C22.898 20.2069 22.9797 20.1542 23.0489 20.0871C23.118 20.0201 23.1733 19.9401 23.2116 19.8516C23.2499 19.7632 23.2704 19.668 23.2719 19.5716V19.5447C23.3527 14.7514 23.3676 9.16418 23.3168 4.14321L25.2309 4.20013C25.1083 8.71481 25.0216 15.033 24.9677 22.0911H22.934H21.5073C20.9963 22.0777 20.485 22.0947 19.976 22.142C18.3799 22.3079 16.86 22.91 15.5824 23.8826C15.9114 22.9975 16.4599 22.2108 17.1762 21.5965C17.8925 20.9823 18.7531 20.5607 19.6769 20.3715C20.1071 20.2862 20.5455 20.249 20.9839 20.2607L22.5272 20.2876V20.2936ZM17.4906 2.81606C18.1384 2.33467 18.8836 2.00131 19.6739 1.83943C20.1032 1.75441 20.5405 1.71723 20.9779 1.72858H21.7615C21.6808 7.06712 21.6808 13.3823 21.7615 18.8047H20.9779C20.4333 18.8125 19.8914 18.8828 19.3629 19.0144C18.391 19.2606 17.4885 19.7269 16.7249 20.3775C16.3018 20.735 15.9276 21.147 15.6123 21.6028C15.8875 16.7406 15.8007 8.95747 15.3581 5.98263C15.3681 5.97104 15.3762 5.95789 15.382 5.94369C15.706 4.68979 16.4504 3.58555 17.4906 2.81606ZM7.64165 4.31397H8.43124C8.68845 4.31397 8.94866 4.31397 9.16998 4.31397C11.103 4.33568 12.9572 5.08417 14.3651 6.41103C14.3991 6.44143 14.4374 6.46666 14.4788 6.48593C14.0122 10.3805 14.0122 20.033 14.4788 24.0174C13.1972 22.9814 11.6532 22.3227 10.0194 22.1151C9.50707 22.0577 8.99149 22.0347 8.4761 22.0462H7.03151H4.97679C4.95286 15.5662 4.90202 9.46376 4.82126 4.35291L7.64165 4.31397ZM1.42663 7.38767C1.42663 7.38767 1.42962 7.39366 1.42663 7.38767V7.38767ZM25.853 25.3625H23.3078H22.0217H21.0497C20.9241 25.3625 20.8015 25.3625 20.6758 25.3625C19.6673 25.4175 18.689 25.7267 17.8315 26.2613C17.3996 26.5326 17.0063 26.8611 16.6621 27.2379C16.6021 27.3103 16.536 27.3774 16.4647 27.4386L16.2853 27.5974C16.2305 27.6505 16.168 27.695 16.0998 27.7292L16.0041 27.7831L15.9563 27.8131H15.9323H15.9503L15.8935 27.8371C15.5915 27.9794 15.2611 28.0511 14.9274 28.0468C14.59 28.0385 14.2592 27.9513 13.9614 27.7921C13.8082 27.7143 13.668 27.6133 13.5456 27.4925C13.4808 27.4401 13.4189 27.3841 13.3602 27.3248C13.2794 27.2409 13.1807 27.1301 13.088 27.0402C12.5179 26.4787 11.8419 26.0367 11.0993 25.7399C10.3567 25.4431 9.56259 25.2975 8.76323 25.3116H6.03257H3.34078H2.01284H1.80946L1.76759 20.5393C1.7317 17.2439 1.68684 14.1971 1.633 11.5009L1.54626 7.73818V7.52248V7.48953H1.73768H2.13547L3.48734 7.44159C3.43051 12.0881 3.39163 17.3667 3.37368 22.894C3.38279 23.0997 3.46984 23.2941 3.61711 23.4377C3.76437 23.5813 3.96076 23.6633 4.16626 23.6669H7.02852H8.47012C8.91859 23.6567 9.36723 23.6767 9.81302 23.7268C11.5658 23.9462 13.1799 24.7945 14.3561 26.1145L14.419 26.1774C14.5795 26.3155 14.7871 26.3861 14.9984 26.3744C15.2096 26.3627 15.4082 26.2695 15.5525 26.1145C16.7385 24.7798 18.3719 23.9271 20.1435 23.7178C20.5967 23.6739 21.0521 23.6569 21.5073 23.6669H22.934L25.7214 23.6399C25.924 23.6384 26.1177 23.5564 26.26 23.4121C26.4024 23.2678 26.4819 23.0729 26.4811 22.87C26.4393 17.0581 26.3764 11.7166 26.2897 7.42062L27.6715 7.46855L28.3355 7.48953V7.53746L28.2547 11.0156C28.2039 13.5021 28.162 16.3152 28.1261 19.3469L28.1141 24.0444V25.2637V25.3715L25.853 25.3625Z" fill="#081C15"/>
<path d="M8.2518 9.00841L9.496 9.19116L10.7223 9.37989C11.0472 9.45063 11.3807 9.47384 11.7122 9.4488C11.7986 9.33297 11.8709 9.20726 11.9276 9.07432C11.9898 8.96671 12.0361 8.85068 12.0652 8.7298C11.8169 8.43575 11.5117 8.19523 11.1679 8.02279C10.2624 7.56802 9.23736 7.40877 8.23685 7.56743C7.88437 7.60901 7.54152 7.71032 7.22294 7.86701C7.19416 8.01191 7.18411 8.15992 7.19303 8.30739C7.19087 8.43566 7.20596 8.56363 7.2379 8.68786C7.55515 8.85182 7.89806 8.96023 8.2518 9.00841Z" fill="#081C15"/>
<path d="M8.2518 12.3008L9.496 12.4835L10.7223 12.6722C11.0472 12.743 11.3807 12.7662 11.7122 12.7412C11.7986 12.6253 11.8709 12.4996 11.9276 12.3667C11.9898 12.2591 12.0361 12.143 12.0652 12.0222C11.8168 11.7282 11.5116 11.4877 11.1679 11.3151C10.2624 10.8604 9.23736 10.7011 8.23685 10.8598C7.88437 10.9014 7.54152 11.0027 7.22294 11.1594C7.19416 11.3043 7.18411 11.4523 7.19303 11.5997C7.1906 11.729 7.20569 11.858 7.2379 11.9832C7.55534 12.1461 7.89824 12.2535 8.2518 12.3008Z" fill="#081C15"/>
<path d="M8.2518 15.5782L9.496 15.761L10.7223 15.9497C11.0472 16.0205 11.3807 16.0437 11.7122 16.0186C11.7986 15.9028 11.8709 15.7771 11.9276 15.6441C11.9898 15.5365 12.0361 15.4205 12.0652 15.2996C11.8169 15.0056 11.5117 14.7651 11.1679 14.5926C10.2624 14.1378 9.23736 13.9786 8.23685 14.1373C7.88437 14.1788 7.54152 14.2801 7.22294 14.4368C7.19416 14.5817 7.18411 14.7297 7.19303 14.8772C7.18893 15.0125 7.20404 15.1476 7.2379 15.2787C7.55647 15.4353 7.89932 15.5366 8.2518 15.5782Z" fill="#081C15"/>
<path d="M8.2518 18.8736L9.496 19.0563L10.7223 19.2451C11.0472 19.3158 11.3807 19.339 11.7122 19.314C11.7986 19.1981 11.8709 19.0724 11.9276 18.9395C11.9898 18.8319 12.0361 18.7158 12.0652 18.595C11.8168 18.301 11.5116 18.0605 11.1679 17.888C10.2624 17.4332 9.23736 17.2739 8.23685 17.4326C7.88437 17.4742 7.54152 17.5755 7.22294 17.7322C7.19416 17.8771 7.18411 18.0251 7.19303 18.1726C7.18893 18.3078 7.20404 18.443 7.2379 18.574C7.55647 18.7307 7.89932 18.832 8.2518 18.8736Z" fill="#081C15"/>
</g>
<defs>
<clipPath id="clip0">
<rect width="29.9087" height="29.9581" fill="white"/>
</clipPath>
</defs>
</svg>
